<svg id="Capa_1" enable-background="new 0 0 512.43 512.43" height="512" viewBox="0 0 512.43 512.43" width="512" xmlns="http://www.w3.org/2000/svg"><g><path d="m330.716 365.179 9.282 107.766c.522 6.061-4.257 11.269-10.34 11.269h-46.363c-5.26 0-9.688-3.935-10.306-9.159l-5.098-43.09c-.49-4.146-4.005-7.269-8.179-7.269h-104.54c-4.174 0-7.689 3.123-8.179 7.269l-5.098 43.09c-.618 5.224-5.046 9.159-10.306 9.159h-46.363c-6.083 0-10.862-5.208-10.34-11.269l9.282-107.766 7.5-133.191h239.048z" fill="#d3b5a8"/><path d="m469.032 169.098h-28.62l-21.263 9.066v32.448l21.263 6.486h16.52v33.17c0 3.95 3.2 7.15 7.15 7.15h33.69c3.95 0 7.16-3.2 7.16-7.15v-45.27c0-19.829-16.07-35.9-35.9-35.9z" fill="#ffefd5"/><path d="m479.408 244.331c-3.949 0-7.15-3.201-7.15-7.15v-21.855c0-6.209-5.105-11.205-11.313-11.07l-41.795.906v5.451l21.263 6.486h16.52v33.17c0 3.949 3.201 7.15 7.15 7.15h33.69c3.954 0 7.16-3.206 7.16-7.16v-5.928z" fill="#f8dbac"/><path d="m440.412 169.098v48l-121.03 2.98 3.83-50.98z" fill="#f8dbac"/><g><g><g id="XMLID_282_"><g><path d="m422.382 198.266v-29.168h-84.827-14.343l-3.83 50.98 121.03-2.98v-12.398l-11.207.243c-3.744.081-6.823-2.932-6.823-6.677z" fill="#f7cf8f"/><g fill="#c9a291"><path d="m330.716 365.178v-133.19h-215.532-23.516l-7.5 133.19-9.282 107.766c-.522 6.061 4.257 11.269 10.34 11.269h46.363c5.26 0 9.688-3.935 10.306-9.159l1.127-9.529h-33.228c-6.083 0-10.862-5.208-10.34-11.269l4.557-52.905c1-11.604 11.884-19.789 23.294-17.45 26.694 5.472 53.546 8.241 80.137 8.241 35.507 0 71.479-4.928 106.919-14.646l.538-.147 16.392-5.494z"/><path d="m407.382 93.348v213.57c0 7.03-3.94 13.47-10.19 16.67-14.26 7.3-28.51 13.76-42.77 19.42l-45.35 15.2c-67.75 18.58-135.51 18.58-203.26 0l-45.35-15.2c-14.26-5.66-28.51-12.12-42.77-19.42-6.25-3.2-10.19-9.64-10.19-16.67v-213.5c0-7.05 3.96-13.5 10.24-16.69 14.25-7.25 28.49-13.68 42.72-19.3l45.41-15.2c67.98-18.63 135.74-18.71 203.28-.22l45.27 15.19c14.28 5.67 28.54 12.17 42.8 19.5 6.24 3.21 10.16 9.64 10.16 16.65z"/></g></g></g></g><g><path d="m387.928 288.564c-8.677 3.923-18.507-2.478-18.507-12.001v-213.095c-4.998-2.19-9.997-4.284-15-6.27l-45.27-15.19c-4.644-1.271-9.289-2.446-13.934-3.542-2.05 4.126-3.208 8.77-3.208 13.681v256.398c0 6.465-4.709 11.938-11.089 12.983-46.438 7.609-92.878 6.492-139.315-3.355-10.924-2.316-18.732-11.978-18.732-23.144v-242.882c0-4.824-1.115-9.392-3.097-13.463-4.634 1.098-9.269 2.274-13.905 3.544l-45.41 15.2c-2.307.911-4.614 1.852-6.921 2.805-.426.177-.852.354-1.278.532-11.5 4.792-23.007 10.105-34.521 15.963-6.28 3.19-10.24 9.64-10.24 16.69v170.502 42.999c0 7.03 3.94 13.47 10.19 16.67 14.26 7.3 28.51 13.76 42.77 19.42l45.35 15.2c67.75 18.58 135.51 18.58 203.26 0l45.35-15.2c14.26-5.66 28.51-12.12 42.77-19.42 6.25-3.2 10.19-9.64 10.19-16.67v-27.662c-6.484 3.274-12.968 6.376-19.453 9.307z" fill="#be8f7d"/><path d="m307.01 348.193v-296.046c0-8.761 7.102-15.863 15.863-15.863h15.687c8.761 0 15.863 7.102 15.863 15.863v296.046c0 8.761-7.102 15.863-15.863 15.863h-15.687c-8.761 0-15.863-7.102-15.863-15.863z" fill="#f7cf8f"/></g><g><path d="m107.874 348.193v-296.046c0-8.761-7.102-15.863-15.863-15.863h-15.686c-8.761 0-15.863 7.102-15.863 15.863v296.046c0 8.761 7.102 15.863 15.863 15.863h15.687c8.76 0 15.862-7.102 15.862-15.863z" fill="#f7cf8f"/></g></g><g><path d="m330.716 190.25c-4.142 0-7.5 3.357-7.5 7.5v5.362c0 4.143 3.358 7.5 7.5 7.5s7.5-3.357 7.5-7.5v-5.362c0-4.143-3.358-7.5-7.5-7.5z"/><path d="m330.716 132.019c-4.142 0-7.5 3.357-7.5 7.5v5.362c0 4.143 3.358 7.5 7.5 7.5s7.5-3.357 7.5-7.5v-5.362c0-4.142-3.358-7.5-7.5-7.5z"/><path d="m330.716 73.789c-4.142 0-7.5 3.357-7.5 7.5v5.362c0 4.143 3.358 7.5 7.5 7.5s7.5-3.357 7.5-7.5v-5.362c0-4.143-3.358-7.5-7.5-7.5z"/><path d="m330.716 247.92c-4.142 0-7.5 3.357-7.5 7.5v5.362c0 4.143 3.358 7.5 7.5 7.5s7.5-3.357 7.5-7.5v-5.362c0-4.142-3.358-7.5-7.5-7.5z"/><path d="m330.716 306.151c-4.142 0-7.5 3.357-7.5 7.5v5.362c0 4.143 3.358 7.5 7.5 7.5s7.5-3.357 7.5-7.5v-5.362c0-4.143-3.358-7.5-7.5-7.5z"/><path d="m84.168 190.25c-4.142 0-7.5 3.357-7.5 7.5v5.362c0 4.143 3.358 7.5 7.5 7.5s7.5-3.357 7.5-7.5v-5.362c0-4.143-3.358-7.5-7.5-7.5z"/><path d="m84.168 132.019c-4.142 0-7.5 3.357-7.5 7.5v5.362c0 4.143 3.358 7.5 7.5 7.5s7.5-3.357 7.5-7.5v-5.362c0-4.142-3.358-7.5-7.5-7.5z"/><path d="m84.168 73.789c-4.142 0-7.5 3.357-7.5 7.5v5.362c0 4.143 3.358 7.5 7.5 7.5s7.5-3.357 7.5-7.5v-5.362c0-4.143-3.358-7.5-7.5-7.5z"/><path d="m84.168 247.92c-4.142 0-7.5 3.357-7.5 7.5v5.362c0 4.143 3.358 7.5 7.5 7.5s7.5-3.357 7.5-7.5v-5.362c0-4.142-3.358-7.5-7.5-7.5z"/><path d="m84.168 306.151c-4.142 0-7.5 3.357-7.5 7.5v5.362c0 4.143 3.358 7.5 7.5 7.5s7.5-3.357 7.5-7.5v-5.362c0-4.143-3.358-7.5-7.5-7.5z"/><path d="m469.034 161.601h-9.336v-20.968h39.625c4.142 0 7.5-3.357 7.5-7.5s-3.358-7.5-7.5-7.5h-58.905c-4.142 0-7.5 3.357-7.5 7.5s3.358 7.5 7.5 7.5h4.281v20.968h-29.813v-68.248c0-9.869-5.452-18.805-14.229-23.32-12.798-6.585-25.805-12.589-38.734-17.89-.002-12.88-10.482-23.358-23.363-23.358h-15.687c-5.556 0-10.663 1.953-14.677 5.204-11.518-3.061-23.209-5.632-34.802-7.639-4.08-.71-7.962 2.028-8.669 6.11-.707 4.081 2.029 7.963 6.111 8.669 9.708 1.681 19.488 3.775 29.171 6.23-.323 1.546-.495 3.147-.495 4.789v57.971c-60.971-7.66-122.826-7.618-184.135.124v-58.096c0-1.554-.156-3.072-.447-4.542 41.474-10.561 83.346-14.113 124.576-10.545 4.134.366 7.762-2.697 8.119-6.825.357-4.126-2.699-7.761-6.825-8.118-44.337-3.843-89.351.238-133.855 12.078-4.052-3.375-9.258-5.41-14.932-5.41h-15.688c-12.882 0-23.363 10.48-23.363 23.362v.214c-12.869 5.246-25.838 11.179-38.62 17.678-8.846 4.499-14.342 13.457-14.342 23.379v213.501c0 9.892 5.471 18.837 14.278 23.346 12.785 6.545 25.775 12.518 38.684 17.799v.129c0 12.805 10.355 23.231 23.13 23.357l-8.678 100.75c-.429 4.977 1.262 9.942 4.639 13.622 3.377 3.681 8.178 5.791 13.173 5.791h46.363c9.057 0 16.69-6.783 17.754-15.778l5.098-43.089c.044-.371.358-.65.731-.65h104.539c.373 0 .688.279.731.649l5.098 43.091c1.064 8.994 8.698 15.777 17.755 15.777h46.363c4.995 0 9.796-2.11 13.173-5.791 3.377-3.68 5.068-8.646 4.639-13.622l-3.575-41.501c-.355-4.127-3.983-7.184-8.116-6.829-4.127.355-7.184 3.989-6.829 8.116l3.575 41.501c.094 1.098-.428 1.846-.747 2.193-.319.349-1.02.933-2.121.933h-46.363c-1.458 0-2.687-1.092-2.858-2.54l-5.098-43.09c-.937-7.917-7.655-13.888-15.627-13.888h-104.539c-7.972 0-14.69 5.97-15.627 13.888l-5.098 43.089c-.171 1.449-1.4 2.541-2.858 2.541h-46.363c-1.101 0-1.801-.584-2.121-.933-.319-.348-.841-1.096-.747-2.193l8.788-102.031h.865c5.62 0 10.782-1.995 14.817-5.313 33.39 8.884 67.002 13.341 100.614 13.341s67.224-4.457 100.614-13.341c4.035 3.318 9.197 5.313 14.817 5.313h.865l2.471 28.684c.336 3.908 3.613 6.856 7.464 6.856.215 0 .433-.009.652-.027 4.127-.355 7.184-3.989 6.829-8.116l-2.361-27.402c12.775-.126 23.13-10.553 23.13-23.357v-.129c12.908-5.281 25.898-11.254 38.684-17.799 8.807-4.509 14.278-13.454 14.278-23.346v-82.317h34.546v25.662c0 8.082 6.575 14.657 14.657 14.657h33.686c8.082 0 14.657-6.575 14.657-14.657v-45.266c-.001-23.93-19.469-43.398-43.397-43.398zm-69.15 31.329h-37.962v-56.934c12.667 2.747 25.381 5.84 37.962 9.244zm-37.962 15h37.962v47.141c-12.589 3.388-25.303 6.469-37.962 9.206zm37.962-114.577v36.363c-12.599-3.339-25.31-6.377-37.962-9.064v-52.254c10.652 4.535 21.332 9.551 31.871 14.973 3.757 1.933 6.091 5.758 6.091 9.982zm-100.374 31.888v67.689h-128.25c-4.142 0-7.5 3.357-7.5 7.5s3.358 7.5 7.5 7.5h128.25v67.101c-61.13 7.869-123.006 7.869-184.135 0v-67.101h23.923c4.142 0 7.5-3.357 7.5-7.5s-3.358-7.5-7.5-7.5h-23.923v-67.563c61.306-7.905 123.181-7.947 184.135-.126zm-246.548 67.689h-37.962v-47.671c12.594-3.366 25.308-6.43 37.962-9.155zm-37.962 15h37.962v56.347c-12.66-2.737-25.374-5.818-37.962-9.206zm6.141-124.52c10.537-5.358 21.201-10.319 31.821-14.809v52.162c-12.639 2.668-25.351 5.679-37.962 8.983v-36.328c0-4.248 2.353-8.082 6.141-10.008zm-.027 233.503c-3.771-1.931-6.114-5.761-6.114-9.994v-36.329c12.606 3.325 25.317 6.352 37.962 9.031v52.194c-10.642-4.519-21.314-9.511-31.848-14.902zm70.897 39.643h-15.686c-4.611 0-8.363-3.752-8.363-8.363v-296.046c0-4.611 3.751-8.362 8.363-8.362h15.687c4.611 0 8.363 3.751 8.363 8.362v296.046c0 4.611-3.752 8.363-8.364 8.363zm22.896-3.704c.306-1.506.468-3.064.468-4.659v-58.037c30.57 3.854 61.318 5.804 92.068 5.804s61.498-1.95 92.067-5.804v58.037c0 1.595.162 3.153.468 4.659-61.443 15.622-123.629 15.622-185.071 0zm223.652 3.704h-15.687c-4.611 0-8.363-3.752-8.363-8.363v-296.046c0-4.611 3.751-8.362 8.363-8.362h15.687c4.611 0 8.363 3.751 8.363 8.362v296.046c0 4.611-3.752 8.363-8.363 8.363zm55.212-39.643c-10.534 5.392-21.207 10.384-31.849 14.902v-52.193c12.644-2.68 25.355-5.707 37.962-9.032v36.329c0 4.234-2.343 8.063-6.113 9.994zm21.113-140.312h18.033v33h-18.033zm82.546 73.319h-33v-32.819c0-4.143-3.358-7.5-7.5-7.5h-9.014v-33h21.117c15.658 0 28.396 12.738 28.396 28.396v44.923z"/></g></g></svg>