<svg id="Capa_1" enable-background="new 0 0 511.8 511.8" height="512" viewBox="0 0 511.8 511.8" width="512" xmlns="http://www.w3.org/2000/svg"><g><g><path d="m372.38 511.8h-160.03c-4.142 0-7.5-3.357-7.5-7.5s3.358-7.5 7.5-7.5h152.53v-144.15c0-4.143 3.358-7.5 7.5-7.5s7.5 3.357 7.5 7.5v151.65c0 4.142-3.358 7.5-7.5 7.5z"/></g><g><path d="m379.883 131.703c0-4.143-3.358-7.5-7.5-7.5h-39.093v-54.676c0-4.143-3.358-7.5-7.5-7.5h-39.09v-54.527c0-4.143-3.358-7.5-7.5-7.5h-46.6c-4.142 0-7.5 3.357-7.5 7.5v28.16c0 4.143 3.358 7.5 7.5 7.5s7.5-3.357 7.5-7.5v-20.66h31.6l-.003 78.191h-31.597v-24.851c0-4.143-3.358-7.5-7.5-7.5s-7.5 3.357-7.5 7.5v55.863h-85.684c-4.142 0-7.5 3.357-7.5 7.5l.004 372.597c0 4.143 3.358 7.5 7.5 7.5h40.25c4.142 0 7.5-3.357 7.5-7.5s-3.358-7.5-7.5-7.5h-32.75v-202.285h49.838l53.562 59.636c3.004 3.343 8.259 3.316 11.225-.073l52.118-59.563h51.218v25.445c0 4.143 3.358 7.5 7.5 7.5s7.5-3.357 7.5-7.5zm-232.963 100.687h217.96v16.063h-217.96zm171.37-15.153h-31.59v-47.124h31.59zm46.593-78.034v78.187h-31.593v-78.187zm-46.593-62.176v78.086h-31.59v-78.086zm-46.593 31.164v109.049h-31.594l-.003-109.049zm-46.597 109.199h-31.59v-78.187h31.59zm-78.183-78.187h31.593v78.187h-31.593zm163.342 140.312c-2.163 0-4.22.934-5.644 2.562l-48.788 55.757-50.144-55.83c-1.422-1.584-3.451-2.488-5.58-2.488h-53.183v-16.063h217.96v16.063h-54.621z"/><path d="m318.024 372.549h-124.249c-4.142 0-7.5 3.357-7.5 7.5v62.124c0 4.143 3.358 7.5 7.5 7.5h124.249c4.142 0 7.5-3.357 7.5-7.5v-62.124c0-4.143-3.357-7.5-7.5-7.5zm-7.5 62.124h-109.249v-47.124h109.249z"/></g></g></svg>