<svg id="Capa_1" enable-background="new 0 0 511.8 511.8" height="512" viewBox="0 0 511.8 511.8" width="512" xmlns="http://www.w3.org/2000/svg"><g><path d="m139.416 131.703h46.593v93.187h-46.593z" fill="#f9bd5f"/><path d="m139.416 131.703h30v93.187h-30z" fill="#f4ac4e"/><path d="m186.01 131.703h46.593v93.187h-46.593z" fill="#f9bd5f"/><path d="m186.01 131.703h30v93.187h-30z" fill="#f4ac4e"/><path d="m325.79 131.703h46.593v93.187h-46.593z" fill="#f9bd5f"/><path d="m325.79 131.703h30v93.187h-30z" fill="#f4ac4e"/><path d="m139.416 224.89h232.967v279.408h-232.967z" fill="#f3faff"/><path d="m139.416 287.014h60.687l55.797 62.125 54.359-62.125h62.124v-31.062h-232.967z" fill="#ff8086"/><path d="m139.416 224.89h30v31.062h-30z" fill="#d8ecfe"/><path d="m139.416 287.014h30v217.284h-30z" fill="#d8ecfe"/><path d="m139.416 255.952h30v31.062h-30z" fill="#e5646e"/><path d="m232.603 7.505h46.593v217.233h-46.593z" fill="#f3faff"/><path d="m232.603 7.505h46.593v93.187h-46.593z" fill="#f9bd5f"/><path d="m232.603 100.691h30v124.046h-30z" fill="#d8ecfe"/><path d="m232.603 7.505h30v93.187h-30z" fill="#f4ac4e"/><path d="m279.197 69.528h46.593v155.21h-46.593z" fill="#f3faff"/><path d="m279.197 69.528h46.593v93.085h-46.593z" fill="#f9bd5f"/><path d="m279.197 162.613h30v62.125h-30z" fill="#d8ecfe"/><path d="m279.197 69.528h30v93.085h-30z" fill="#f4ac4e"/><path d="m193.775 380.049h124.249v62.125h-124.249z" fill="#ffe177"/><g><g><path d="m372.38 511.8h-160.03c-4.142 0-7.5-3.357-7.5-7.5s3.358-7.5 7.5-7.5h152.53v-144.15c0-4.143 3.358-7.5 7.5-7.5s7.5 3.357 7.5 7.5v151.65c0 4.142-3.358 7.5-7.5 7.5z"/></g><g><path d="m379.883 131.703c0-4.143-3.358-7.5-7.5-7.5h-39.093v-54.676c0-4.143-3.358-7.5-7.5-7.5h-39.09v-54.527c0-4.143-3.358-7.5-7.5-7.5h-46.6c-4.142 0-7.5 3.357-7.5 7.5v28.16c0 4.143 3.358 7.5 7.5 7.5s7.5-3.357 7.5-7.5v-20.66h31.6l-.003 78.191h-31.597v-24.851c0-4.143-3.358-7.5-7.5-7.5s-7.5 3.357-7.5 7.5v55.863h-85.684c-4.142 0-7.5 3.357-7.5 7.5l.004 372.597c0 4.143 3.358 7.5 7.5 7.5h40.25c4.142 0 7.5-3.357 7.5-7.5s-3.358-7.5-7.5-7.5h-32.75v-202.285h49.838l53.562 59.636c3.004 3.343 8.259 3.316 11.225-.073l52.118-59.563h51.218v25.445c0 4.143 3.358 7.5 7.5 7.5s7.5-3.357 7.5-7.5zm-232.963 100.687h217.96v16.063h-217.96zm171.37-15.153h-31.59v-47.124h31.59zm46.593-78.034v78.187h-31.593v-78.187zm-46.593-62.176v78.086h-31.59v-78.086zm-46.593 31.164v109.049h-31.594l-.003-109.049zm-46.597 109.199h-31.59v-78.187h31.59zm-78.183-78.187h31.593v78.187h-31.593zm163.342 140.312c-2.163 0-4.22.934-5.644 2.562l-48.788 55.757-50.144-55.83c-1.422-1.584-3.451-2.488-5.58-2.488h-53.183v-16.063h217.96v16.063h-54.621z"/><path d="m318.024 372.549h-124.249c-4.142 0-7.5 3.357-7.5 7.5v62.124c0 4.143 3.358 7.5 7.5 7.5h124.249c4.142 0 7.5-3.357 7.5-7.5v-62.124c0-4.143-3.357-7.5-7.5-7.5zm-7.5 62.124h-109.249v-47.124h109.249z"/></g></g></g></svg>